<svg width="72" height="72" viewBox="0 0 72 72" fill="none" xmlns="http://www.w3.org/2000/svg">
<g clip-path="url(#clip0_18084_708)">
<path d="M48 33H23.9999" stroke="#6445FF" stroke-width="3" stroke-linecap="round" stroke-linejoin="round"/>
<path d="M32.9999 45H23.9999" stroke="#6445FF" stroke-width="3" stroke-linecap="round" stroke-linejoin="round"/>
<path d="M54 66C54 62.8174 55.2643 59.7652 57.5147 57.5147C59.7652 55.2643 62.8174 54 66 54C62.8174 54 59.7652 52.7357 57.5147 50.4853C55.2643 48.2348 54 45.1826 54 42C54 45.1826 52.7357 48.2348 50.4853 50.4853C48.2348 52.7357 45.1826 54 42 54C45.1826 54 48.2348 55.2643 50.4853 57.5147C52.7357 59.7652 54 62.8174 54 66Z" stroke="#FA9200" stroke-width="3" stroke-linecap="round" stroke-linejoin="round"/>
<path d="M22.5 9V18" stroke="#6445FF" stroke-width="3" stroke-linecap="round" stroke-linejoin="round"/>
<path d="M49.5 9V18" stroke="#6445FF" stroke-width="3" stroke-linecap="round" stroke-linejoin="round"/>
<path d="M36 63H18C15.6131 63 13.3239 62.0518 11.636 60.364C9.94821 58.6761 9 56.3869 9 54V22.5C9 20.1131 9.94821 17.8239 11.636 16.136C13.3239 14.4482 15.6131 13.5 18 13.5H54C56.3869 13.5 58.6761 14.4482 60.364 16.136C62.0518 17.8239 63 20.1131 63 22.5V36" stroke="#6445FF" stroke-width="3" stroke-linecap="round" stroke-linejoin="round"/>
</g>
<defs>
<clipPath id="clip0_18084_708">
<rect width="72" height="72" fill="white"/>
</clipPath>
</defs>
</svg>
